<svg width="645" height="172" viewBox="0 0 645 172" fill="none" xmlns="http://www.w3.org/2000/svg">
<path d="M215.36 116.24H204.704L202.56 122H200.992L209.248 100.048H210.848L219.072 122H217.504L215.36 116.24ZM214.912 115.024L210.048 101.936L205.152 115.024H214.912ZM237.375 104.624V122H235.935V118.224C235.444 119.547 234.623 120.56 233.471 121.264C232.34 121.947 231.039 122.288 229.567 122.288C227.497 122.288 225.801 121.659 224.479 120.4C223.177 119.12 222.527 117.232 222.527 114.736V104.624H223.935V114.64C223.935 116.709 224.457 118.299 225.503 119.408C226.548 120.496 227.967 121.04 229.759 121.04C231.636 121.04 233.129 120.443 234.239 119.248C235.369 118.053 235.935 116.283 235.935 113.936V104.624H237.375ZM250.112 104.4C251.947 104.4 253.504 104.848 254.784 105.744C256.064 106.619 256.96 107.749 257.472 109.136V104.624H258.912V122.544C258.912 124.144 258.56 125.541 257.856 126.736C257.152 127.952 256.203 128.88 255.008 129.52C253.813 130.181 252.48 130.512 251.008 130.512C248.832 130.512 247.029 129.989 245.6 128.944C244.171 127.899 243.232 126.491 242.784 124.72H244.224C244.651 126.107 245.451 127.205 246.624 128.016C247.797 128.848 249.259 129.264 251.008 129.264C252.224 129.264 253.323 128.987 254.304 128.432C255.285 127.899 256.053 127.12 256.608 126.096C257.184 125.093 257.472 123.909 257.472 122.544V117.456C256.96 118.843 256.053 119.995 254.752 120.912C253.472 121.808 251.925 122.256 250.112 122.256C248.491 122.256 247.04 121.893 245.76 121.168C244.501 120.421 243.509 119.376 242.784 118.032C242.08 116.667 241.728 115.088 241.728 113.296C241.728 111.504 242.08 109.936 242.784 108.592C243.509 107.248 244.501 106.213 245.76 105.488C247.04 104.763 248.491 104.4 250.112 104.4ZM257.472 113.296C257.472 111.781 257.152 110.448 256.512 109.296C255.893 108.123 255.04 107.227 253.952 106.608C252.864 105.968 251.648 105.648 250.304 105.648C248.896 105.648 247.659 105.957 246.592 106.576C245.525 107.173 244.693 108.048 244.096 109.2C243.499 110.352 243.2 111.717 243.2 113.296C243.2 114.875 243.499 116.24 244.096 117.392C244.693 118.544 245.525 119.429 246.592 120.048C247.68 120.667 248.917 120.976 250.304 120.976C251.648 120.976 252.864 120.667 253.952 120.048C255.061 119.408 255.925 118.512 256.544 117.36C257.163 116.187 257.472 114.832 257.472 113.296ZM279.803 112.144C279.803 112.912 279.782 113.488 279.739 113.872H264.731C264.774 115.429 265.115 116.741 265.755 117.808C266.395 118.875 267.238 119.675 268.283 120.208C269.329 120.741 270.47 121.008 271.707 121.008C273.414 121.008 274.843 120.592 275.995 119.76C277.147 118.907 277.873 117.755 278.171 116.304H279.675C279.334 118.075 278.459 119.515 277.051 120.624C275.643 121.712 273.862 122.256 271.707 122.256C270.086 122.256 268.635 121.893 267.355 121.168C266.075 120.443 265.073 119.408 264.347 118.064C263.622 116.699 263.259 115.109 263.259 113.296C263.259 111.483 263.611 109.904 264.315 108.56C265.041 107.216 266.043 106.192 267.323 105.488C268.603 104.763 270.065 104.4 271.707 104.4C273.371 104.4 274.811 104.763 276.027 105.488C277.265 106.192 278.203 107.141 278.843 108.336C279.483 109.509 279.803 110.779 279.803 112.144ZM278.363 112.688C278.427 111.152 278.15 109.851 277.531 108.784C276.934 107.717 276.113 106.928 275.067 106.416C274.022 105.883 272.891 105.616 271.675 105.616C270.459 105.616 269.329 105.883 268.283 106.416C267.259 106.928 266.417 107.717 265.755 108.784C265.115 109.851 264.774 111.152 264.731 112.688H278.363ZM291.995 104.272C294.065 104.272 295.75 104.912 297.051 106.192C298.353 107.451 299.003 109.328 299.003 111.824V122H297.595V111.92C297.595 109.851 297.073 108.272 296.027 107.184C294.982 106.075 293.563 105.52 291.771 105.52C289.894 105.52 288.39 106.117 287.259 107.312C286.15 108.507 285.595 110.277 285.595 112.624V122H284.155V104.624H285.595V108.304C286.086 107.003 286.897 106.011 288.027 105.328C289.179 104.624 290.502 104.272 291.995 104.272ZM303.197 113.296C303.197 111.504 303.549 109.936 304.253 108.592C304.978 107.248 305.97 106.213 307.229 105.488C308.509 104.763 309.959 104.4 311.581 104.4C313.415 104.4 314.973 104.848 316.253 105.744C317.533 106.64 318.429 107.781 318.941 109.168V104.624H320.381V122H318.941V117.424C318.429 118.832 317.522 119.995 316.221 120.912C314.941 121.808 313.394 122.256 311.581 122.256C309.959 122.256 308.509 121.893 307.229 121.168C305.97 120.421 304.978 119.376 304.253 118.032C303.549 116.667 303.197 115.088 303.197 113.296ZM318.941 113.296C318.941 111.781 318.621 110.448 317.981 109.296C317.362 108.123 316.509 107.227 315.421 106.608C314.333 105.968 313.117 105.648 311.773 105.648C310.365 105.648 309.127 105.957 308.061 106.576C306.994 107.173 306.162 108.048 305.565 109.2C304.967 110.352 304.669 111.717 304.669 113.296C304.669 114.875 304.967 116.24 305.565 117.392C306.162 118.544 306.994 119.429 308.061 120.048C309.149 120.667 310.386 120.976 311.773 120.976C313.117 120.976 314.333 120.667 315.421 120.048C316.53 119.408 317.394 118.512 318.013 117.36C318.631 116.187 318.941 114.832 318.941 113.296ZM327.064 108.208C327.491 106.928 328.248 105.957 329.336 105.296C330.424 104.613 331.811 104.272 333.496 104.272V105.776H333.016C331.309 105.776 329.891 106.267 328.76 107.248C327.629 108.208 327.064 109.787 327.064 111.984V122H325.624V104.624H327.064V108.208ZM336.876 120.784H346.668V122H335.276V120.784L344.812 105.84H335.5V104.624H346.444V105.84L336.876 120.784ZM352.518 105.872V117.36C352.518 118.64 352.753 119.525 353.222 120.016C353.691 120.485 354.523 120.72 355.718 120.72H357.67V122H355.494C353.979 122 352.859 121.648 352.134 120.944C351.43 120.219 351.078 119.024 351.078 117.36V105.872H348.454V104.624H351.078V100.208H352.518V104.624H357.67V105.872H352.518Z" fill="black"/>
<path d="M211.48 43.04C214.573 43.04 217.227 43.6 219.44 44.72C221.653 45.84 223.347 47.4533 224.52 49.56C225.693 51.6667 226.28 54.1733 226.28 57.08C226.28 59.96 225.693 62.4533 224.52 64.56C223.347 66.64 221.653 68.24 219.44 69.36C217.227 70.4533 214.573 71 211.48 71H203.2V43.04H211.48ZM211.48 68.68C215.373 68.68 218.333 67.6667 220.36 65.64C222.413 63.5867 223.44 60.7333 223.44 57.08C223.44 53.4 222.413 50.5333 220.36 48.48C218.333 46.4 215.373 45.36 211.48 45.36H206V68.68H211.48ZM234.242 53.04C234.856 51.68 235.789 50.6267 237.042 49.88C238.322 49.1333 239.882 48.76 241.722 48.76V51.68H240.962C238.936 51.68 237.309 52.2267 236.082 53.32C234.856 54.4133 234.242 56.24 234.242 58.8V71H231.442V49.16H234.242V53.04ZM246.414 71.2C245.828 71.2 245.334 71 244.934 70.6C244.561 70.2 244.374 69.7067 244.374 69.12C244.374 68.5333 244.561 68.0533 244.934 67.68C245.334 67.28 245.828 67.08 246.414 67.08C246.974 67.08 247.441 67.28 247.814 67.68C248.214 68.0533 248.414 68.5333 248.414 69.12C248.414 69.7067 248.214 70.2 247.814 70.6C247.441 71 246.974 71.2 246.414 71.2ZM262.897 57C262.897 54.2533 263.497 51.8 264.697 49.64C265.897 47.4533 267.537 45.76 269.617 44.56C271.697 43.3333 274.017 42.72 276.577 42.72C279.697 42.72 282.363 43.4667 284.577 44.96C286.817 46.4267 288.443 48.5067 289.457 51.2H286.177C285.377 49.3067 284.15 47.8267 282.497 46.76C280.87 45.6933 278.897 45.16 276.577 45.16C274.523 45.16 272.67 45.64 271.017 46.6C269.39 47.56 268.11 48.9467 267.177 50.76C266.243 52.5467 265.777 54.6267 265.777 57C265.777 59.3733 266.243 61.4533 267.177 63.24C268.11 65.0267 269.39 66.4 271.017 67.36C272.67 68.32 274.523 68.8 276.577 68.8C278.897 68.8 280.87 68.28 282.497 67.24C284.15 66.1733 285.377 64.7067 286.177 62.84H289.457C288.443 65.5067 286.817 67.5733 284.577 69.04C282.337 70.5067 279.67 71.24 276.577 71.24C274.017 71.24 271.697 70.64 269.617 69.44C267.537 68.2133 265.897 66.52 264.697 64.36C263.497 62.2 262.897 59.7467 262.897 57ZM293.756 60.04C293.756 57.8 294.196 55.84 295.076 54.16C295.983 52.4533 297.223 51.1467 298.796 50.24C300.396 49.3067 302.196 48.84 304.196 48.84C306.276 48.84 308.063 49.32 309.556 50.28C311.076 51.24 312.169 52.4667 312.836 53.96V49.16H315.636V71H312.836V66.16C312.143 67.6533 311.036 68.8933 309.516 69.88C308.023 70.84 306.236 71.32 304.156 71.32C302.183 71.32 300.396 70.8533 298.796 69.92C297.223 68.9867 295.983 67.6667 295.076 65.96C294.196 64.2533 293.756 62.28 293.756 60.04ZM312.836 60.08C312.836 58.32 312.476 56.7733 311.756 55.44C311.036 54.1067 310.049 53.08 308.796 52.36C307.569 51.64 306.209 51.28 304.716 51.28C303.169 51.28 301.783 51.6267 300.556 52.32C299.329 53.0133 298.356 54.0267 297.636 55.36C296.943 56.6667 296.596 58.2267 296.596 60.04C296.596 61.8267 296.943 63.4 297.636 64.76C298.356 66.0933 299.329 67.12 300.556 67.84C301.783 68.5333 303.169 68.88 304.716 68.88C306.209 68.88 307.569 68.52 308.796 67.8C310.049 67.08 311.036 66.0533 311.756 64.72C312.476 63.3867 312.836 61.84 312.836 60.08ZM324.828 53.04C325.441 51.68 326.375 50.6267 327.628 49.88C328.908 49.1333 330.468 48.76 332.308 48.76V51.68H331.548C329.521 51.68 327.895 52.2267 326.668 53.32C325.441 54.4133 324.828 56.24 324.828 58.8V71H322.028V49.16H324.828V53.04ZM344.04 71.32C341.534 71.32 339.48 70.7467 337.88 69.6C336.307 68.4267 335.427 66.84 335.24 64.84H338.12C338.254 66.0667 338.827 67.0667 339.84 67.84C340.88 68.5867 342.267 68.96 344 68.96C345.52 68.96 346.707 68.6 347.56 67.88C348.44 67.16 348.88 66.2667 348.88 65.2C348.88 64.4533 348.64 63.84 348.16 63.36C347.68 62.88 347.067 62.5067 346.32 62.24C345.6 61.9467 344.614 61.64 343.36 61.32C341.734 60.8933 340.414 60.4667 339.4 60.04C338.387 59.6133 337.52 58.9867 336.8 58.16C336.107 57.3067 335.76 56.1733 335.76 54.76C335.76 53.6933 336.08 52.7067 336.72 51.8C337.36 50.8933 338.267 50.1733 339.44 49.64C340.614 49.1067 341.947 48.84 343.44 48.84C345.787 48.84 347.68 49.44 349.12 50.64C350.56 51.8133 351.334 53.44 351.44 55.52H348.64C348.56 54.24 348.054 53.2133 347.12 52.44C346.214 51.64 344.96 51.24 343.36 51.24C341.947 51.24 340.8 51.5733 339.92 52.24C339.04 52.9067 338.6 53.7333 338.6 54.72C338.6 55.5733 338.854 56.28 339.36 56.84C339.894 57.3733 340.547 57.8 341.32 58.12C342.094 58.4133 343.134 58.7467 344.44 59.12C346.014 59.5467 347.267 59.96 348.2 60.36C349.134 60.76 349.934 61.3467 350.6 62.12C351.267 62.8933 351.614 63.92 351.64 65.2C351.64 66.3733 351.32 67.4267 350.68 68.36C350.04 69.2667 349.147 69.9867 348 70.52C346.854 71.0533 345.534 71.32 344.04 71.32ZM360.551 51.52V65.08C360.551 66.4133 360.804 67.3333 361.311 67.84C361.818 68.3467 362.711 68.6 363.991 68.6H366.551V71H363.551C361.578 71 360.111 70.5467 359.151 69.64C358.191 68.7067 357.711 67.1867 357.711 65.08V51.52H354.671V49.16H357.711V43.68H360.551V49.16H366.551V51.52H360.551ZM390.929 58.96C390.929 59.92 390.902 60.6533 390.849 61.16H372.729C372.809 62.8133 373.209 64.2267 373.929 65.4C374.649 66.5733 375.595 67.4667 376.769 68.08C377.942 68.6667 379.222 68.96 380.609 68.96C382.422 68.96 383.942 68.52 385.169 67.64C386.422 66.76 387.249 65.5733 387.649 64.08H390.609C390.075 66.2133 388.929 67.96 387.169 69.32C385.435 70.6533 383.249 71.32 380.609 71.32C378.555 71.32 376.715 70.8667 375.089 69.96C373.462 69.0267 372.182 67.72 371.249 66.04C370.342 64.3333 369.889 62.3467 369.889 60.08C369.889 57.8133 370.342 55.8267 371.249 54.12C372.155 52.4133 373.422 51.1067 375.049 50.2C376.675 49.2933 378.529 48.84 380.609 48.84C382.689 48.84 384.502 49.2933 386.049 50.2C387.622 51.1067 388.822 52.3333 389.649 53.88C390.502 55.4 390.929 57.0933 390.929 58.96ZM388.089 58.88C388.115 57.2533 387.782 55.8667 387.089 54.72C386.422 53.5733 385.502 52.7067 384.329 52.12C383.155 51.5333 381.875 51.24 380.489 51.24C378.409 51.24 376.635 51.9067 375.169 53.24C373.702 54.5733 372.889 56.4533 372.729 58.88H388.089ZM406.292 48.76C408.905 48.76 411.038 49.5733 412.692 51.2C414.345 52.8 415.172 55.1333 415.172 58.2V71H412.412V58.52C412.412 56.1467 411.812 54.3333 410.612 53.08C409.438 51.8267 407.825 51.2 405.772 51.2C403.665 51.2 401.985 51.8667 400.732 53.2C399.478 54.5333 398.852 56.4933 398.852 59.08V71H396.052V49.16H398.852V52.88C399.545 51.5467 400.545 50.5333 401.852 49.84C403.158 49.12 404.638 48.76 406.292 48.76ZM440.821 71.28C438.981 71.28 437.354 70.96 435.941 70.32C434.554 69.68 433.461 68.7867 432.661 67.64C431.861 66.4933 431.434 65.2133 431.381 63.8H434.341C434.474 65.16 435.074 66.36 436.141 67.4C437.207 68.4133 438.767 68.92 440.821 68.92C442.714 68.92 444.207 68.44 445.301 67.48C446.421 66.4933 446.981 65.2533 446.981 63.76C446.981 62.56 446.674 61.6 446.061 60.88C445.447 60.1333 444.687 59.5867 443.781 59.24C442.874 58.8667 441.621 58.4667 440.021 58.04C438.154 57.5333 436.674 57.04 435.581 56.56C434.487 56.08 433.554 55.3333 432.781 54.32C432.007 53.3067 431.621 51.9333 431.621 50.2C431.621 48.76 431.994 47.48 432.741 46.36C433.487 45.2133 434.541 44.32 435.901 43.68C437.261 43.04 438.821 42.72 440.581 42.72C443.167 42.72 445.247 43.36 446.821 44.64C448.421 45.8933 449.341 47.52 449.581 49.52H446.541C446.354 48.3733 445.727 47.36 444.661 46.48C443.594 45.5733 442.154 45.12 440.341 45.12C438.661 45.12 437.261 45.5733 436.141 46.48C435.021 47.36 434.461 48.5733 434.461 50.12C434.461 51.2933 434.767 52.24 435.381 52.96C435.994 53.68 436.754 54.2267 437.661 54.6C438.594 54.9733 439.847 55.3733 441.421 55.8C443.234 56.3067 444.701 56.8133 445.821 57.32C446.941 57.8 447.887 58.5467 448.661 59.56C449.434 60.5733 449.821 61.9333 449.821 63.64C449.821 64.9467 449.474 66.1867 448.781 67.36C448.087 68.5333 447.061 69.48 445.701 70.2C444.341 70.92 442.714 71.28 440.821 71.28ZM453.951 60.08C453.951 57.8133 454.405 55.84 455.311 54.16C456.218 52.4533 457.471 51.1467 459.071 50.24C460.671 49.3067 462.498 48.84 464.551 48.84C467.245 48.84 469.458 49.5067 471.191 50.84C472.951 52.1733 474.085 53.9867 474.591 56.28H471.591C471.218 54.7067 470.405 53.48 469.151 52.6C467.925 51.6933 466.391 51.24 464.551 51.24C463.085 51.24 461.765 51.5733 460.591 52.24C459.418 52.9067 458.485 53.9067 457.791 55.24C457.125 56.5467 456.791 58.16 456.791 60.08C456.791 62 457.125 63.6267 457.791 64.96C458.485 66.2933 459.418 67.2933 460.591 67.96C461.765 68.6267 463.085 68.96 464.551 68.96C466.391 68.96 467.925 68.52 469.151 67.64C470.405 66.7333 471.218 65.48 471.591 63.88H474.591C474.085 66.12 472.951 67.92 471.191 69.28C469.431 70.64 467.218 71.32 464.551 71.32C462.498 71.32 460.671 70.8667 459.071 69.96C457.471 69.0267 456.218 67.72 455.311 66.04C454.405 64.3333 453.951 62.3467 453.951 60.08ZM490.163 48.76C491.816 48.76 493.296 49.1067 494.603 49.8C495.936 50.4933 496.976 51.56 497.723 53C498.496 54.4133 498.883 56.1467 498.883 58.2V71H496.123V58.52C496.123 56.1467 495.523 54.3333 494.323 53.08C493.149 51.8267 491.536 51.2 489.483 51.2C487.376 51.2 485.696 51.8667 484.443 53.2C483.189 54.5333 482.563 56.4933 482.563 59.08V71H479.763V41.4H482.563V52.88C483.256 51.5733 484.269 50.56 485.603 49.84C486.963 49.12 488.483 48.76 490.163 48.76ZM507.875 41.4V71H505.075V41.4H507.875ZM533.976 58.96C533.976 59.92 533.949 60.6533 533.896 61.16H515.776C515.856 62.8133 516.256 64.2267 516.976 65.4C517.696 66.5733 518.642 67.4667 519.816 68.08C520.989 68.6667 522.269 68.96 523.656 68.96C525.469 68.96 526.989 68.52 528.216 67.64C529.469 66.76 530.296 65.5733 530.696 64.08H533.656C533.122 66.2133 531.976 67.96 530.216 69.32C528.482 70.6533 526.296 71.32 523.656 71.32C521.602 71.32 519.762 70.8667 518.136 69.96C516.509 69.0267 515.229 67.72 514.296 66.04C513.389 64.3333 512.936 62.3467 512.936 60.08C512.936 57.8133 513.389 55.8267 514.296 54.12C515.202 52.4133 516.469 51.1067 518.096 50.2C519.722 49.2933 521.576 48.84 523.656 48.84C525.736 48.84 527.549 49.2933 529.096 50.2C530.669 51.1067 531.869 52.3333 532.696 53.88C533.549 55.4 533.976 57.0933 533.976 58.96ZM531.136 58.88C531.162 57.2533 530.829 55.8667 530.136 54.72C529.469 53.5733 528.549 52.7067 527.376 52.12C526.202 51.5333 524.922 51.24 523.536 51.24C521.456 51.24 519.682 51.9067 518.216 53.24C516.749 54.5733 515.936 56.4533 515.776 58.88H531.136ZM546.618 71.32C544.112 71.32 542.058 70.7467 540.458 69.6C538.885 68.4267 538.005 66.84 537.818 64.84H540.698C540.832 66.0667 541.405 67.0667 542.418 67.84C543.458 68.5867 544.845 68.96 546.578 68.96C548.098 68.96 549.285 68.6 550.138 67.88C551.018 67.16 551.458 66.2667 551.458 65.2C551.458 64.4533 551.218 63.84 550.738 63.36C550.258 62.88 549.645 62.5067 548.898 62.24C548.178 61.9467 547.192 61.64 545.938 61.32C544.312 60.8933 542.992 60.4667 541.978 60.04C540.965 59.6133 540.098 58.9867 539.378 58.16C538.685 57.3067 538.338 56.1733 538.338 54.76C538.338 53.6933 538.658 52.7067 539.298 51.8C539.938 50.8933 540.845 50.1733 542.018 49.64C543.192 49.1067 544.525 48.84 546.018 48.84C548.365 48.84 550.258 49.44 551.698 50.64C553.138 51.8133 553.912 53.44 554.018 55.52H551.218C551.138 54.24 550.632 53.2133 549.698 52.44C548.792 51.64 547.538 51.24 545.938 51.24C544.525 51.24 543.378 51.5733 542.498 52.24C541.618 52.9067 541.178 53.7333 541.178 54.72C541.178 55.5733 541.432 56.28 541.938 56.84C542.472 57.3733 543.125 57.8 543.898 58.12C544.672 58.4133 545.712 58.7467 547.018 59.12C548.592 59.5467 549.845 59.96 550.778 60.36C551.712 60.76 552.512 61.3467 553.178 62.12C553.845 62.8933 554.192 63.92 554.218 65.2C554.218 66.3733 553.898 67.4267 553.258 68.36C552.618 69.2667 551.725 69.9867 550.578 70.52C549.432 71.0533 548.112 71.32 546.618 71.32ZM579.249 58.96C579.249 59.92 579.222 60.6533 579.169 61.16H561.049C561.129 62.8133 561.529 64.2267 562.249 65.4C562.969 66.5733 563.916 67.4667 565.089 68.08C566.262 68.6667 567.542 68.96 568.929 68.96C570.742 68.96 572.262 68.52 573.489 67.64C574.742 66.76 575.569 65.5733 575.969 64.08H578.929C578.396 66.2133 577.249 67.96 575.489 69.32C573.756 70.6533 571.569 71.32 568.929 71.32C566.876 71.32 565.036 70.8667 563.409 69.96C561.782 69.0267 560.502 67.72 559.569 66.04C558.662 64.3333 558.209 62.3467 558.209 60.08C558.209 57.8133 558.662 55.8267 559.569 54.12C560.476 52.4133 561.742 51.1067 563.369 50.2C564.996 49.2933 566.849 48.84 568.929 48.84C571.009 48.84 572.822 49.2933 574.369 50.2C575.942 51.1067 577.142 52.3333 577.969 53.88C578.822 55.4 579.249 57.0933 579.249 58.96ZM576.409 58.88C576.436 57.2533 576.102 55.8667 575.409 54.72C574.742 53.5733 573.822 52.7067 572.649 52.12C571.476 51.5333 570.196 51.24 568.809 51.24C566.729 51.24 564.956 51.9067 563.489 53.24C562.022 54.5733 561.209 56.4533 561.049 58.88H576.409Z" fill="black"/>
<path d="M90.0014 0.00104867C139.433 0.232839 179.283 38.7363 179.009 86.001C178.735 133.266 138.441 171.394 89.0092 171.162C39.578 170.93 -0.27227 132.427 0.00140117 85.1622C0.275397 37.8976 40.57 -0.230456 90.0014 0.00104867ZM88.8237 9.71687C43.8395 9.70946 7.93422 46.1668 7.69964 86.627C7.46535 127.087 48.9168 163.157 88.8559 163.163C131.87 163.365 170.585 127.114 170.82 86.6544C171.093 39.5489 132.126 9.72406 88.8237 9.71687ZM90.809 31.7833C121.527 31.9274 146.286 56.6929 146.11 87.0987C145.934 117.504 120.889 142.036 90.1713 141.893C59.4531 141.749 34.6933 116.983 34.8696 86.5772C35.0459 56.1715 60.0911 31.6395 90.809 31.7833ZM72.2827 130.731C77.4868 133.107 82.9979 134.576 88.5053 134.894V109.254C87.4227 109.076 86.3646 108.829 85.3364 108.514L72.2827 130.731ZM98.2309 108.906C97.0223 109.196 95.778 109.396 94.5053 109.499V134.817C99.4763 134.421 104.31 133.199 108.859 131.304L98.2309 108.906ZM107.967 104.052C106.714 105.086 105.353 105.999 103.901 106.768L114.285 128.651C118.151 126.468 121.733 123.786 124.92 120.712L107.967 104.052ZM56.9438 120.192C59.9777 123.141 63.3508 125.744 66.9448 127.911L79.8051 106.023C78.7383 105.37 77.7265 104.639 76.7807 103.835L56.9438 120.192ZM114.652 95.1495C113.964 96.7571 113.1 98.274 112.082 99.6768L129.002 116.303C131.857 112.838 134.248 109.019 136.065 104.962L114.652 95.1495ZM45.9409 104.796C47.7375 108.713 50.0921 112.407 52.8725 115.777L72.7328 99.4014C71.964 98.3092 71.2864 97.1508 70.7123 95.9356L45.9409 104.796ZM116.456 87.5811C116.418 88.1687 116.358 88.7502 116.277 89.3253L138.16 99.3516C139.299 95.551 139.935 91.6004 139.983 87.5811H116.456ZM42.0395 87.5811C42.0425 91.5566 42.668 95.4619 43.8139 99.2198L68.8823 90.254C68.7221 89.3789 68.6134 88.4869 68.5551 87.5811H42.0395ZM90.7602 39.4552C86.0854 39.4552 81.5737 40.1349 77.308 41.3897L81.8325 53.6046C79.8533 52.9426 77.7237 52.5811 75.5053 52.5811C75.3391 52.5811 75.1734 52.583 75.0082 52.587L71.6284 43.4591C67.9102 45.0835 64.4353 47.1586 61.267 49.6007L65.9125 55.0411C64.1281 56.0319 62.5293 57.2904 61.1782 58.7589L56.7309 53.5509C53.1794 57.0374 50.1596 61.0321 47.7983 65.3751L56.6284 68.5323C56.5479 69.2047 56.5053 69.8883 56.5053 70.5811C56.5053 72.1181 56.7096 73.6101 57.0922 75.0343L45.2651 70.8048C43.9066 74.2604 42.9477 77.8748 42.4457 81.5811H60.4662C63.9411 85.8388 69.3849 88.581 75.5053 88.5811C85.9987 88.5811 94.5053 80.5223 94.5053 70.5811C94.5053 65.4044 92.1982 60.7389 88.5053 57.4552V39.5811H94.4594C93.2338 39.4976 92 39.4552 90.7602 39.4552ZM114.651 77.0079C115.274 78.4637 115.751 79.9939 116.065 81.5811H139.707C139.244 77.1286 138.215 72.9646 136.704 69.1212L114.651 77.0079ZM109.236 69.2344C110.068 70.0271 110.842 70.8782 111.55 71.7813L134.142 63.7012C132.23 60.2698 129.899 57.1591 127.233 54.3956L109.236 69.2344ZM103.567 65.2218C103.794 65.3377 104.019 65.4574 104.243 65.5802L122.747 50.3214C119.355 47.6218 115.587 45.3859 111.553 43.6602L103.567 65.2218ZM94.5053 62.6622C95.6545 62.755 96.7808 62.9262 97.8784 63.1719L105.862 41.6163C102.208 40.5404 98.3983 39.8527 94.5053 39.5841V62.6622Z" fill="#2F5E8A"/>
</svg>
