<svg width="331" height="83" viewBox="0 0 331 83" fill="none" xmlns="http://www.w3.org/2000/svg">
<path d="M0 52.0498C7.11515 63.7129 25.6794 82.2117 42.4521 82.2119C55.9957 82.2119 71.7081 70.9411 83 60.2285V83H0V52.0498ZM83 29.5156C71.7081 19.0727 55.9956 8 42.4521 8C25.0749 8.00018 7.09089 27.5298 0 38.6836V0H83V29.5156Z" fill="#DD6226"/>
<path d="M44.5 18C47.3549 18 50.1082 18.4192 52.6973 19.1973C48.6697 21.6846 46 26.0414 46 31C46 38.732 52.4919 45 60.5 45C64.9573 45 68.9437 43.0572 71.6035 40.002C71.863 41.464 72 42.9666 72 44.5C72 59.1355 59.6878 71 44.5 71C29.3122 71 17 59.1355 17 44.5C17 29.8645 29.3122 18 44.5 18Z" fill="#D9D9D9"/>
<path d="M46.0381 32C46.5843 39.2509 52.8507 44.9697 60.5 44.9697C60.6631 44.9697 60.8255 44.9651 60.9873 44.96C60.9943 45.1294 61 45.2993 61 45.4697C61 52.6494 54.732 57.9697 47 57.9697C39.268 57.9697 33 52.1494 33 44.9697C33 38.0902 38.7548 32.4589 46.0381 32Z" fill="#575656"/>
<path d="M95.888 20.224C97.744 20.224 99.336 20.56 100.664 21.232C101.992 21.904 103.008 22.872 103.712 24.136C104.416 25.4 104.768 26.904 104.768 28.648C104.768 30.376 104.416 31.872 103.712 33.136C103.008 34.384 101.992 35.344 100.664 36.016C99.336 36.672 97.744 37 95.888 37H90.92V20.224H95.888ZM95.888 35.608C98.224 35.608 100 35 101.216 33.784C102.448 32.552 103.064 30.84 103.064 28.648C103.064 26.44 102.448 24.72 101.216 23.488C100 22.24 98.224 21.616 95.888 21.616H92.6V35.608H95.888ZM109.545 26.224C109.913 25.408 110.473 24.776 111.225 24.328C111.993 23.88 112.929 23.656 114.033 23.656V25.408H113.577C112.361 25.408 111.385 25.736 110.649 26.392C109.913 27.048 109.545 28.144 109.545 29.68V37H107.865V23.896H109.545V26.224ZM116.849 37.12C116.497 37.12 116.201 37 115.961 36.76C115.737 36.52 115.625 36.224 115.625 35.872C115.625 35.52 115.737 35.232 115.961 35.008C116.201 34.768 116.497 34.648 116.849 34.648C117.185 34.648 117.465 34.768 117.689 35.008C117.929 35.232 118.049 35.52 118.049 35.872C118.049 36.224 117.929 36.52 117.689 36.76C117.465 37 117.185 37.12 116.849 37.12ZM126.738 28.6C126.738 26.952 127.098 25.48 127.818 24.184C128.538 22.872 129.522 21.856 130.77 21.136C132.018 20.4 133.41 20.032 134.946 20.032C136.818 20.032 138.418 20.48 139.746 21.376C141.09 22.256 142.066 23.504 142.674 25.12H140.706C140.226 23.984 139.49 23.096 138.498 22.456C137.522 21.816 136.338 21.496 134.946 21.496C133.714 21.496 132.602 21.784 131.61 22.36C130.634 22.936 129.866 23.768 129.306 24.856C128.746 25.928 128.466 27.176 128.466 28.6C128.466 30.024 128.746 31.272 129.306 32.344C129.866 33.416 130.634 34.24 131.61 34.816C132.602 35.392 133.714 35.68 134.946 35.68C136.338 35.68 137.522 35.368 138.498 34.744C139.49 34.104 140.226 33.224 140.706 32.104H142.674C142.066 33.704 141.09 34.944 139.746 35.824C138.402 36.704 136.802 37.144 134.946 37.144C133.41 37.144 132.018 36.784 130.77 36.064C129.522 35.328 128.538 34.312 127.818 33.016C127.098 31.72 126.738 30.248 126.738 28.6ZM145.254 30.424C145.254 29.08 145.518 27.904 146.046 26.896C146.59 25.872 147.334 25.088 148.278 24.544C149.238 23.984 150.318 23.704 151.518 23.704C152.766 23.704 153.838 23.992 154.734 24.568C155.646 25.144 156.302 25.88 156.702 26.776V23.896H158.382V37H156.702V34.096C156.286 34.992 155.622 35.736 154.71 36.328C153.814 36.904 152.742 37.192 151.494 37.192C150.31 37.192 149.238 36.912 148.278 36.352C147.334 35.792 146.59 35 146.046 33.976C145.518 32.952 145.254 31.768 145.254 30.424ZM156.702 30.448C156.702 29.392 156.486 28.464 156.054 27.664C155.622 26.864 155.03 26.248 154.278 25.816C153.542 25.384 152.726 25.168 151.83 25.168C150.902 25.168 150.07 25.376 149.334 25.792C148.598 26.208 148.014 26.816 147.582 27.616C147.166 28.4 146.958 29.336 146.958 30.424C146.958 31.496 147.166 32.44 147.582 33.256C148.014 34.056 148.598 34.672 149.334 35.104C150.07 35.52 150.902 35.728 151.83 35.728C152.726 35.728 153.542 35.512 154.278 35.08C155.03 34.648 155.622 34.032 156.054 33.232C156.486 32.432 156.702 31.504 156.702 30.448ZM163.897 26.224C164.265 25.408 164.825 24.776 165.577 24.328C166.345 23.88 167.281 23.656 168.385 23.656V25.408H167.929C166.713 25.408 165.737 25.736 165.001 26.392C164.265 27.048 163.897 28.144 163.897 29.68V37H162.217V23.896H163.897V26.224ZM175.424 37.192C173.92 37.192 172.688 36.848 171.728 36.16C170.784 35.456 170.256 34.504 170.144 33.304H171.872C171.952 34.04 172.296 34.64 172.904 35.104C173.528 35.552 174.36 35.776 175.4 35.776C176.312 35.776 177.024 35.56 177.536 35.128C178.064 34.696 178.328 34.16 178.328 33.52C178.328 33.072 178.184 32.704 177.896 32.416C177.608 32.128 177.24 31.904 176.792 31.744C176.36 31.568 175.768 31.384 175.016 31.192C174.04 30.936 173.248 30.68 172.64 30.424C172.032 30.168 171.512 29.792 171.08 29.296C170.664 28.784 170.456 28.104 170.456 27.256C170.456 26.616 170.648 26.024 171.032 25.48C171.416 24.936 171.96 24.504 172.664 24.184C173.368 23.864 174.168 23.704 175.064 23.704C176.472 23.704 177.608 24.064 178.472 24.784C179.336 25.488 179.8 26.464 179.864 27.712H178.184C178.136 26.944 177.832 26.328 177.272 25.864C176.728 25.384 175.976 25.144 175.016 25.144C174.168 25.144 173.48 25.344 172.952 25.744C172.424 26.144 172.16 26.64 172.16 27.232C172.16 27.744 172.312 28.168 172.616 28.504C172.936 28.824 173.328 29.08 173.792 29.272C174.256 29.448 174.88 29.648 175.664 29.872C176.608 30.128 177.36 30.376 177.92 30.616C178.48 30.856 178.96 31.208 179.36 31.672C179.76 32.136 179.968 32.752 179.984 33.52C179.984 34.224 179.792 34.856 179.408 35.416C179.024 35.96 178.488 36.392 177.8 36.712C177.112 37.032 176.32 37.192 175.424 37.192ZM185.331 25.312V33.448C185.331 34.248 185.483 34.8 185.787 35.104C186.091 35.408 186.627 35.56 187.395 35.56H188.931V37H187.131C185.947 37 185.067 36.728 184.491 36.184C183.915 35.624 183.627 34.712 183.627 33.448V25.312H181.803V23.896H183.627V20.608H185.331V23.896H188.931V25.312H185.331ZM203.557 29.776C203.557 30.352 203.541 30.792 203.509 31.096H192.637C192.685 32.088 192.925 32.936 193.357 33.64C193.789 34.344 194.357 34.88 195.061 35.248C195.765 35.6 196.533 35.776 197.365 35.776C198.453 35.776 199.365 35.512 200.101 34.984C200.853 34.456 201.349 33.744 201.589 32.848H203.365C203.045 34.128 202.357 35.176 201.301 35.992C200.261 36.792 198.949 37.192 197.365 37.192C196.133 37.192 195.029 36.92 194.053 36.376C193.077 35.816 192.309 35.032 191.749 34.024C191.205 33 190.933 31.808 190.933 30.448C190.933 29.088 191.205 27.896 191.749 26.872C192.293 25.848 193.053 25.064 194.029 24.52C195.005 23.976 196.117 23.704 197.365 23.704C198.613 23.704 199.701 23.976 200.629 24.52C201.573 25.064 202.293 25.8 202.789 26.728C203.301 27.64 203.557 28.656 203.557 29.776ZM201.853 29.728C201.869 28.752 201.669 27.92 201.253 27.232C200.853 26.544 200.301 26.024 199.597 25.672C198.893 25.32 198.125 25.144 197.293 25.144C196.045 25.144 194.981 25.544 194.101 26.344C193.221 27.144 192.733 28.272 192.637 29.728H201.853ZM212.775 23.656C214.343 23.656 215.623 24.144 216.615 25.12C217.607 26.08 218.103 27.48 218.103 29.32V37H216.447V29.512C216.447 28.088 216.087 27 215.367 26.248C214.663 25.496 213.695 25.12 212.463 25.12C211.199 25.12 210.191 25.52 209.439 26.32C208.687 27.12 208.311 28.296 208.311 29.848V37H206.631V23.896H208.311V26.128C208.727 25.328 209.327 24.72 210.111 24.304C210.895 23.872 211.783 23.656 212.775 23.656ZM233.492 37.168C232.388 37.168 231.412 36.976 230.564 36.592C229.732 36.208 229.076 35.672 228.596 34.984C228.116 34.296 227.86 33.528 227.828 32.68H229.604C229.684 33.496 230.044 34.216 230.684 34.84C231.324 35.448 232.26 35.752 233.492 35.752C234.628 35.752 235.524 35.464 236.18 34.888C236.852 34.296 237.188 33.552 237.188 32.656C237.188 31.936 237.004 31.36 236.636 30.928C236.268 30.48 235.812 30.152 235.268 29.944C234.724 29.72 233.972 29.48 233.012 29.224C231.892 28.92 231.004 28.624 230.348 28.336C229.692 28.048 229.132 27.6 228.668 26.992C228.204 26.384 227.972 25.56 227.972 24.52C227.972 23.656 228.196 22.888 228.644 22.216C229.092 21.528 229.724 20.992 230.54 20.608C231.356 20.224 232.292 20.032 233.348 20.032C234.9 20.032 236.148 20.416 237.092 21.184C238.052 21.936 238.604 22.912 238.748 24.112H236.924C236.812 23.424 236.436 22.816 235.796 22.288C235.156 21.744 234.292 21.472 233.204 21.472C232.196 21.472 231.356 21.744 230.684 22.288C230.012 22.816 229.676 23.544 229.676 24.472C229.676 25.176 229.86 25.744 230.228 26.176C230.596 26.608 231.052 26.936 231.596 27.16C232.156 27.384 232.908 27.624 233.852 27.88C234.94 28.184 235.82 28.488 236.492 28.792C237.164 29.08 237.732 29.528 238.196 30.136C238.66 30.744 238.892 31.56 238.892 32.584C238.892 33.368 238.684 34.112 238.268 34.816C237.852 35.52 237.236 36.088 236.42 36.52C235.604 36.952 234.628 37.168 233.492 37.168ZM241.371 30.448C241.371 29.088 241.643 27.904 242.187 26.896C242.731 25.872 243.483 25.088 244.443 24.544C245.403 23.984 246.499 23.704 247.731 23.704C249.347 23.704 250.675 24.104 251.715 24.904C252.771 25.704 253.451 26.792 253.755 28.168H251.955C251.731 27.224 251.243 26.488 250.491 25.96C249.755 25.416 248.835 25.144 247.731 25.144C246.851 25.144 246.059 25.344 245.355 25.744C244.651 26.144 244.091 26.744 243.675 27.544C243.275 28.328 243.075 29.296 243.075 30.448C243.075 31.6 243.275 32.576 243.675 33.376C244.091 34.176 244.651 34.776 245.355 35.176C246.059 35.576 246.851 35.776 247.731 35.776C248.835 35.776 249.755 35.512 250.491 34.984C251.243 34.44 251.731 33.688 251.955 32.728H253.755C253.451 34.072 252.771 35.152 251.715 35.968C250.659 36.784 249.331 37.192 247.731 37.192C246.499 37.192 245.403 36.92 244.443 36.376C243.483 35.816 242.731 35.032 242.187 34.024C241.643 33 241.371 31.808 241.371 30.448ZM263.098 23.656C264.09 23.656 264.978 23.864 265.762 24.28C266.562 24.696 267.186 25.336 267.634 26.2C268.098 27.048 268.33 28.088 268.33 29.32V37H266.674V29.512C266.674 28.088 266.314 27 265.594 26.248C264.89 25.496 263.922 25.12 262.69 25.12C261.426 25.12 260.418 25.52 259.666 26.32C258.914 27.12 258.538 28.296 258.538 29.848V37H256.858V19.24H258.538V26.128C258.954 25.344 259.562 24.736 260.362 24.304C261.178 23.872 262.09 23.656 263.098 23.656ZM273.725 19.24V37H272.045V19.24H273.725ZM289.385 29.776C289.385 30.352 289.369 30.792 289.337 31.096H278.465C278.513 32.088 278.753 32.936 279.185 33.64C279.617 34.344 280.185 34.88 280.889 35.248C281.593 35.6 282.361 35.776 283.193 35.776C284.281 35.776 285.193 35.512 285.929 34.984C286.681 34.456 287.177 33.744 287.417 32.848H289.193C288.873 34.128 288.185 35.176 287.129 35.992C286.089 36.792 284.777 37.192 283.193 37.192C281.961 37.192 280.857 36.92 279.881 36.376C278.905 35.816 278.137 35.032 277.577 34.024C277.033 33 276.761 31.808 276.761 30.448C276.761 29.088 277.033 27.896 277.577 26.872C278.121 25.848 278.881 25.064 279.857 24.52C280.833 23.976 281.945 23.704 283.193 23.704C284.441 23.704 285.529 23.976 286.457 24.52C287.401 25.064 288.121 25.8 288.617 26.728C289.129 27.64 289.385 28.656 289.385 29.776ZM287.681 29.728C287.697 28.752 287.497 27.92 287.081 27.232C286.681 26.544 286.129 26.024 285.425 25.672C284.721 25.32 283.953 25.144 283.121 25.144C281.873 25.144 280.809 25.544 279.929 26.344C279.049 27.144 278.561 28.272 278.465 29.728H287.681ZM296.971 37.192C295.467 37.192 294.235 36.848 293.275 36.16C292.331 35.456 291.803 34.504 291.691 33.304H293.419C293.499 34.04 293.843 34.64 294.451 35.104C295.075 35.552 295.907 35.776 296.947 35.776C297.859 35.776 298.571 35.56 299.083 35.128C299.611 34.696 299.875 34.16 299.875 33.52C299.875 33.072 299.731 32.704 299.443 32.416C299.155 32.128 298.787 31.904 298.339 31.744C297.907 31.568 297.315 31.384 296.563 31.192C295.587 30.936 294.795 30.68 294.187 30.424C293.579 30.168 293.059 29.792 292.627 29.296C292.211 28.784 292.003 28.104 292.003 27.256C292.003 26.616 292.195 26.024 292.579 25.48C292.963 24.936 293.507 24.504 294.211 24.184C294.915 23.864 295.715 23.704 296.611 23.704C298.019 23.704 299.155 24.064 300.019 24.784C300.883 25.488 301.347 26.464 301.411 27.712H299.731C299.683 26.944 299.379 26.328 298.819 25.864C298.275 25.384 297.523 25.144 296.563 25.144C295.715 25.144 295.027 25.344 294.499 25.744C293.971 26.144 293.707 26.64 293.707 27.232C293.707 27.744 293.859 28.168 294.163 28.504C294.483 28.824 294.875 29.08 295.339 29.272C295.803 29.448 296.427 29.648 297.211 29.872C298.155 30.128 298.907 30.376 299.467 30.616C300.027 30.856 300.507 31.208 300.907 31.672C301.307 32.136 301.515 32.752 301.531 33.52C301.531 34.224 301.339 34.856 300.955 35.416C300.571 35.96 300.035 36.392 299.347 36.712C298.659 37.032 297.867 37.192 296.971 37.192ZM316.549 29.776C316.549 30.352 316.533 30.792 316.501 31.096H305.629C305.677 32.088 305.917 32.936 306.349 33.64C306.781 34.344 307.349 34.88 308.053 35.248C308.757 35.6 309.525 35.776 310.357 35.776C311.445 35.776 312.357 35.512 313.093 34.984C313.845 34.456 314.341 33.744 314.581 32.848H316.357C316.037 34.128 315.349 35.176 314.293 35.992C313.253 36.792 311.941 37.192 310.357 37.192C309.125 37.192 308.021 36.92 307.045 36.376C306.069 35.816 305.301 35.032 304.741 34.024C304.197 33 303.925 31.808 303.925 30.448C303.925 29.088 304.197 27.896 304.741 26.872C305.285 25.848 306.045 25.064 307.021 24.52C307.997 23.976 309.109 23.704 310.357 23.704C311.605 23.704 312.693 23.976 313.621 24.52C314.565 25.064 315.285 25.8 315.781 26.728C316.293 27.64 316.549 28.656 316.549 29.776ZM314.845 29.728C314.861 28.752 314.661 27.92 314.245 27.232C313.845 26.544 313.293 26.024 312.589 25.672C311.885 25.32 311.117 25.144 310.285 25.144C309.037 25.144 307.973 25.544 307.093 26.344C306.213 27.144 305.725 28.272 305.629 29.728H314.845Z" fill="black"/>
<path d="M98.6 55.4H91.94L90.6 59H89.62L94.78 45.28H95.78L100.92 59H99.94L98.6 55.4ZM98.32 54.64L95.28 46.46L92.22 54.64H98.32ZM112.359 48.14V59H111.459V56.64C111.152 57.4667 110.639 58.1 109.919 58.54C109.212 58.9667 108.399 59.18 107.479 59.18C106.186 59.18 105.126 58.7867 104.299 58C103.486 57.2 103.079 56.02 103.079 54.46V48.14H103.959V54.4C103.959 55.6933 104.286 56.6867 104.939 57.38C105.592 58.06 106.479 58.4 107.599 58.4C108.772 58.4 109.706 58.0267 110.399 57.28C111.106 56.5333 111.459 55.4267 111.459 53.96V48.14H112.359ZM120.32 48C121.467 48 122.44 48.28 123.24 48.84C124.04 49.3867 124.6 50.0933 124.92 50.96V48.14H125.82V59.34C125.82 60.34 125.6 61.2133 125.16 61.96C124.72 62.72 124.127 63.3 123.38 63.7C122.633 64.1133 121.8 64.32 120.88 64.32C119.52 64.32 118.393 63.9933 117.5 63.34C116.607 62.6867 116.02 61.8067 115.74 60.7H116.64C116.907 61.5667 117.407 62.2533 118.14 62.76C118.873 63.28 119.787 63.54 120.88 63.54C121.64 63.54 122.327 63.3667 122.94 63.02C123.553 62.6867 124.033 62.2 124.38 61.56C124.74 60.9333 124.92 60.1933 124.92 59.34V56.16C124.6 57.0267 124.033 57.7467 123.22 58.32C122.42 58.88 121.453 59.16 120.32 59.16C119.307 59.16 118.4 58.9333 117.6 58.48C116.813 58.0133 116.193 57.36 115.74 56.52C115.3 55.6667 115.08 54.68 115.08 53.56C115.08 52.44 115.3 51.46 115.74 50.62C116.193 49.78 116.813 49.1333 117.6 48.68C118.4 48.2267 119.307 48 120.32 48ZM124.92 53.56C124.92 52.6133 124.72 51.78 124.32 51.06C123.933 50.3267 123.4 49.7667 122.72 49.38C122.04 48.98 121.28 48.78 120.44 48.78C119.56 48.78 118.787 48.9733 118.12 49.36C117.453 49.7333 116.933 50.28 116.56 51C116.187 51.72 116 52.5733 116 53.56C116 54.5467 116.187 55.4 116.56 56.12C116.933 56.84 117.453 57.3933 118.12 57.78C118.8 58.1667 119.573 58.36 120.44 58.36C121.28 58.36 122.04 58.1667 122.72 57.78C123.413 57.38 123.953 56.82 124.34 56.1C124.727 55.3667 124.92 54.52 124.92 53.56ZM138.877 52.84C138.877 53.32 138.864 53.68 138.837 53.92H129.457C129.484 54.8933 129.697 55.7133 130.097 56.38C130.497 57.0467 131.024 57.5467 131.677 57.88C132.33 58.2133 133.044 58.38 133.817 58.38C134.884 58.38 135.777 58.12 136.497 57.6C137.217 57.0667 137.67 56.3467 137.857 55.44H138.797C138.584 56.5467 138.037 57.4467 137.157 58.14C136.277 58.82 135.164 59.16 133.817 59.16C132.804 59.16 131.897 58.9333 131.097 58.48C130.297 58.0267 129.67 57.38 129.217 56.54C128.764 55.6867 128.537 54.6933 128.537 53.56C128.537 52.4267 128.757 51.44 129.197 50.6C129.65 49.76 130.277 49.12 131.077 48.68C131.877 48.2267 132.79 48 133.817 48C134.857 48 135.757 48.2267 136.517 48.68C137.29 49.12 137.877 49.7133 138.277 50.46C138.677 51.1933 138.877 51.9867 138.877 52.84ZM137.977 53.18C138.017 52.22 137.844 51.4067 137.457 50.74C137.084 50.0733 136.57 49.58 135.917 49.26C135.264 48.9267 134.557 48.76 133.797 48.76C133.037 48.76 132.33 48.9267 131.677 49.26C131.037 49.58 130.51 50.0733 130.097 50.74C129.697 51.4067 129.484 52.22 129.457 53.18H137.977ZM146.497 47.92C147.79 47.92 148.844 48.32 149.657 49.12C150.47 49.9067 150.877 51.08 150.877 52.64V59H149.997V52.7C149.997 51.4067 149.67 50.42 149.017 49.74C148.364 49.0467 147.477 48.7 146.357 48.7C145.184 48.7 144.244 49.0733 143.537 49.82C142.844 50.5667 142.497 51.6733 142.497 53.14V59H141.597V48.14H142.497V50.44C142.804 49.6267 143.31 49.0067 144.017 48.58C144.737 48.14 145.564 47.92 146.497 47.92ZM153.498 53.56C153.498 52.44 153.718 51.46 154.158 50.62C154.611 49.78 155.231 49.1333 156.018 48.68C156.818 48.2267 157.725 48 158.738 48C159.885 48 160.858 48.28 161.658 48.84C162.458 49.4 163.018 50.1133 163.338 50.98V48.14H164.238V59H163.338V56.14C163.018 57.02 162.451 57.7467 161.638 58.32C160.838 58.88 159.871 59.16 158.738 59.16C157.725 59.16 156.818 58.9333 156.018 58.48C155.231 58.0133 154.611 57.36 154.158 56.52C153.718 55.6667 153.498 54.68 153.498 53.56ZM163.338 53.56C163.338 52.6133 163.138 51.78 162.738 51.06C162.351 50.3267 161.818 49.7667 161.138 49.38C160.458 48.98 159.698 48.78 158.858 48.78C157.978 48.78 157.205 48.9733 156.538 49.36C155.871 49.7333 155.351 50.28 154.978 51C154.605 51.72 154.418 52.5733 154.418 53.56C154.418 54.5467 154.605 55.4 154.978 56.12C155.351 56.84 155.871 57.3933 156.538 57.78C157.218 58.1667 157.991 58.36 158.858 58.36C159.698 58.36 160.458 58.1667 161.138 57.78C161.831 57.38 162.371 56.82 162.758 56.1C163.145 55.3667 163.338 54.52 163.338 53.56ZM168.415 50.38C168.682 49.58 169.155 48.9733 169.835 48.56C170.515 48.1333 171.382 47.92 172.435 47.92V48.86H172.135C171.068 48.86 170.182 49.1667 169.475 49.78C168.768 50.38 168.415 51.3667 168.415 52.74V59H167.515V48.14H168.415V50.38ZM174.547 58.24H180.667V59H173.547V58.24L179.507 48.9H173.687V48.14H180.527V48.9L174.547 58.24ZM184.324 48.92V56.1C184.324 56.9 184.47 57.4533 184.764 57.76C185.057 58.0533 185.577 58.2 186.324 58.2H187.544V59H186.184C185.237 59 184.537 58.78 184.084 58.34C183.644 57.8867 183.424 57.14 183.424 56.1V48.92H181.784V48.14H183.424V45.38H184.324V48.14H187.544V48.92H184.324Z" fill="black"/>
</svg>
