<svg width="329" height="310" viewBox="0 0 329 310" fill="none" xmlns="http://www.w3.org/2000/svg">
<path d="M165.412 0.0018988C256.261 0.420584 329.5 69.9673 328.997 155.339C328.493 240.711 254.437 309.58 163.588 309.161C72.7385 308.742 -0.50094 239.195 0.002581 153.823C0.506291 68.4515 74.5625 -0.416673 165.412 0.0018988ZM163.246 17.5527C80.5704 17.5393 14.5812 83.3886 14.15 156.47C13.719 229.551 89.9019 294.702 163.305 294.714C242.361 295.078 313.515 229.599 313.946 156.519C314.448 71.4343 242.83 17.5654 163.246 17.5527ZM173.488 62.7187C229.944 62.9789 275.448 107.712 275.124 162.633C274.799 217.553 228.771 261.864 172.315 261.604C115.859 261.344 70.3544 216.611 70.6784 161.69C71.0023 106.77 117.032 62.4587 173.488 62.7187ZM139.285 241.378C149.125 245.815 159.567 248.512 169.986 249V201.101C167.996 200.779 166.052 200.332 164.162 199.764L139.285 241.378ZM187.86 200.472C185.639 200.995 183.352 201.357 181.013 201.543V248.766C190.342 247.952 199.401 245.589 207.895 241.967L187.86 200.472ZM205.756 191.704C203.453 193.573 200.951 195.221 198.281 196.609L217.798 237.032C224.933 232.94 231.521 227.934 237.351 222.219L205.756 191.704ZM110.704 221.891C116.379 227.392 122.717 232.243 129.483 236.268L153.995 195.264C152.034 194.085 150.176 192.763 148.438 191.311L110.704 221.891ZM218.041 175.623C216.777 178.527 215.19 181.267 213.319 183.801L244.716 214.123C249.873 207.753 254.161 200.753 257.363 193.332L218.041 175.623ZM90.5104 193.485C93.7719 200.753 98.1168 207.611 103.285 213.865L140.997 183.304C139.584 181.331 138.34 179.238 137.285 177.043L90.5104 193.485ZM139.37 83.3261C132.601 86.1231 126.258 89.7152 120.452 93.9589L139.859 116.296C139.439 116.278 139.016 116.268 138.591 116.268C134.576 116.268 130.754 117.085 127.289 118.558L111.993 100.952C105.398 107.101 99.7533 114.174 95.2887 121.885L114.857 128.763C112.842 131.734 111.39 135.104 110.65 138.727L90.4303 131.62C87.7902 137.857 85.8908 144.398 84.8317 151.115H110.951C111.982 155.146 113.903 158.829 116.497 161.953H83.8698C83.8625 162.319 83.8583 162.686 83.8561 163.053C83.8153 169.977 84.8419 176.787 86.7653 183.357L126.207 169.492C129.952 171.27 134.153 172.268 138.591 172.268C154.331 172.267 167.091 159.731 167.091 144.268C167.091 134.089 161.563 125.18 153.297 120.278L139.37 83.3261ZM221.355 161.953C221.286 163.014 221.175 164.064 221.026 165.102L260.998 183.103C262.826 176.608 263.826 169.884 263.867 163.053C263.869 162.685 263.868 162.319 263.866 161.953H221.355ZM218.038 142.857C219.182 145.486 220.058 148.249 220.635 151.115H263.177C262.202 143.22 260.216 135.84 257.372 129.03L218.038 142.857ZM208.087 128.815C209.616 130.247 211.038 131.785 212.339 133.416L252.508 119.296C248.987 113.303 244.741 107.864 239.908 103.028L208.087 128.815ZM197.667 121.567C198.085 121.777 198.499 121.992 198.91 122.214L231.589 95.7333C225.547 91.0929 218.868 87.2331 211.74 84.2236L197.667 121.567ZM169.986 76.6386C163.038 76.9026 156.303 77.9687 149.865 79.7333L164.52 118.62C166.297 118.101 168.122 117.688 169.986 117.387V76.6386ZM181.013 116.944C183.125 117.112 185.195 117.422 187.213 117.866L201.288 80.5156C194.76 78.6164 187.961 77.3823 181.013 76.8603V116.944Z" fill="#536480"/>
</svg>
