<svg width="329" height="310" viewBox="0 0 329 310" fill="none" xmlns="http://www.w3.org/2000/svg">
<path d="M165.412 0.00189619C256.261 0.420525 329.5 69.968 328.997 155.34C328.493 240.711 254.437 309.579 163.589 309.161C72.7394 308.742 -0.500899 239.195 0.00258033 153.823C0.506358 68.4517 74.5628 -0.416481 165.412 0.00189619ZM163.246 17.5527C80.5706 17.5395 14.5813 83.3888 14.15 156.47C13.7191 229.551 89.9021 294.702 163.305 294.714C242.361 295.078 313.514 229.6 313.946 156.519C314.448 71.435 242.83 17.5653 163.246 17.5527ZM183.397 67.4755C239.853 67.7358 285.357 112.469 285.033 167.39C284.709 222.31 238.68 266.621 182.224 266.361C125.768 266.101 80.2627 221.368 80.5866 166.447C80.9105 111.527 126.941 67.2156 183.397 67.4755ZM149.194 246.135C159.034 250.572 169.476 253.269 179.895 253.757V205.857C177.905 205.536 175.96 205.09 174.07 204.521L149.194 246.135ZM197.769 205.228C195.548 205.752 193.261 206.114 190.923 206.3V253.522C200.251 252.709 209.31 250.346 217.804 246.724L197.769 205.228ZM215.665 196.461C213.362 198.33 210.859 199.977 208.189 201.366L227.708 241.789C234.842 237.696 241.43 232.691 247.26 226.976L215.665 196.461ZM120.613 226.647C126.287 232.148 132.626 236.999 139.391 241.023L163.904 200.019C161.944 198.841 160.085 197.52 158.347 196.068L120.613 226.647ZM227.95 180.38C226.687 183.284 225.099 186.025 223.228 188.559L254.625 218.881C259.781 212.511 264.07 205.51 267.272 198.089L227.95 180.38ZM100.42 198.242C103.681 205.51 108.026 212.368 113.194 218.622L150.906 188.06C149.493 186.088 148.249 183.995 147.194 181.8L100.42 198.242ZM149.279 88.083C142.511 90.8799 136.167 94.4721 130.361 98.7158L149.756 121.039C149.67 121.038 149.583 121.036 149.497 121.036C145.203 121.036 141.132 121.97 137.481 123.641L121.903 105.71C115.308 111.859 109.662 118.931 105.197 126.642L125.58 133.806C123.603 136.796 122.191 140.181 121.494 143.813L100.339 136.377C97.6993 142.615 95.7999 149.156 94.7409 155.873H121.854C122.884 159.903 124.802 163.586 127.393 166.71H93.7789C93.7717 167.076 93.7665 167.443 93.7643 167.81C93.7235 174.734 94.751 181.544 96.6745 188.114L136.681 174.051C140.534 175.96 144.887 177.036 149.497 177.036C165.237 177.036 177.997 164.5 177.997 149.036C177.997 138.35 171.904 129.064 162.945 124.345L149.279 88.083ZM231.264 166.71C231.195 167.771 231.084 168.821 230.935 169.859L270.907 187.86C272.735 181.365 273.736 174.641 273.776 167.81C273.778 167.443 273.777 167.076 273.775 166.71H231.264ZM227.947 147.614C229.091 150.243 229.967 153.007 230.545 155.873H273.088C272.112 147.978 270.125 140.597 267.281 133.787L227.947 147.614ZM217.996 133.572C219.525 135.004 220.947 136.542 222.249 138.173L262.418 124.053C258.896 118.06 254.651 112.621 249.817 107.785L217.996 133.572ZM207.576 126.324C207.994 126.534 208.409 126.749 208.819 126.971L241.497 100.49C235.455 95.85 228.777 91.9898 221.649 88.9804L207.576 126.324ZM179.895 81.3964C172.947 81.6604 166.212 82.7256 159.774 84.4902L174.429 123.377C176.206 122.858 178.031 122.445 179.895 122.144V81.3964ZM190.923 121.701C193.035 121.869 195.105 122.179 197.122 122.623L211.197 85.2724C204.67 83.3733 197.87 82.1391 190.923 81.6171V121.701Z" fill="#536480"/>
</svg>
