<svg width="180" height="172" viewBox="0 0 180 172" fill="none" xmlns="http://www.w3.org/2000/svg">
<path fill-rule="evenodd" clip-rule="evenodd" d="M90.0014 0.00104668C139.433 0.232837 179.283 38.7364 179.009 86.001C178.735 133.266 138.441 171.394 89.0092 171.162C39.5782 170.93 -0.272269 132.426 0.00140116 85.1622C0.275435 37.8978 40.5702 -0.230237 90.0014 0.00104668ZM88.8237 9.71687C43.8397 9.70969 7.93426 46.167 7.69964 86.627C7.46535 127.087 48.9169 163.156 88.8559 163.163C131.87 163.365 170.585 127.114 170.82 86.6544C171.093 39.5489 132.126 9.72406 88.8237 9.71687ZM90.809 31.7833C121.527 31.9274 146.286 56.693 146.11 87.0987C145.934 117.504 120.889 142.036 90.1713 141.893C59.4533 141.748 34.6933 116.983 34.8696 86.5772C35.0459 56.1717 60.0913 31.6397 90.809 31.7833ZM72.2827 130.731C77.4867 133.107 82.998 134.576 88.5053 134.894V109.254C87.4229 109.076 86.3645 108.828 85.3364 108.514L72.2827 130.731ZM98.2309 108.906C97.0224 109.196 95.7779 109.396 94.5053 109.499V134.817C99.4762 134.421 104.311 133.199 108.859 131.304L98.2309 108.906ZM107.967 104.052C106.715 105.086 105.353 105.999 103.901 106.768L114.285 128.651C118.15 126.468 121.733 123.786 124.92 120.712L107.967 104.052ZM56.9438 120.192C59.9776 123.141 63.3509 125.744 66.9448 127.911L79.8051 106.023C78.7384 105.37 77.7264 104.639 76.7807 103.835L56.9438 120.192ZM114.652 95.1495C113.964 96.7571 113.1 98.2741 112.082 99.6768L129.002 116.303C131.857 112.838 134.248 109.019 136.065 104.962L114.652 95.1495ZM45.9409 104.796C47.7375 108.713 50.0922 112.407 52.8725 115.777L72.7328 99.4014C71.964 98.3093 71.2864 97.1507 70.7123 95.9356L45.9409 104.796ZM116.456 87.5811C116.418 88.1687 116.358 88.7502 116.277 89.3253L138.16 99.3516C139.299 95.551 139.935 91.6004 139.983 87.5811H116.456ZM42.0395 87.5811C42.0425 91.5565 42.668 95.462 43.8139 99.2198L68.8823 90.254C68.7221 89.379 68.6134 88.4868 68.5551 87.5811H42.0395ZM90.7602 39.4551C86.0856 39.4552 81.5736 40.135 77.308 41.3897L81.8325 53.6046C79.8534 52.9427 77.7245 52.5811 75.5063 52.5811C75.3398 52.5811 75.1737 52.583 75.0082 52.587L71.6284 43.4591C67.9103 45.0834 64.4352 47.1587 61.267 49.6007L65.9125 55.0421C64.1283 56.0328 62.5292 57.2905 61.1782 58.7589L56.7309 53.5508C53.1795 57.0374 50.1595 61.0322 47.7983 65.3751L56.6284 68.5323C56.5479 69.2047 56.5063 69.8883 56.5063 70.5811C56.5063 72.118 56.7097 73.6101 57.0922 75.0342L45.2651 70.8048C43.9066 74.2604 42.9477 77.8748 42.4457 81.5811H60.4672C63.9421 85.8388 69.3858 88.5811 75.5063 88.5811C85.9996 88.5811 94.5063 80.5222 94.5063 70.5811C94.5062 65.404 92.1986 60.7379 88.5053 57.4542V39.5811H94.4594C93.2339 39.4976 91.9998 39.4551 90.7602 39.4551ZM114.651 77.0079C115.274 78.4636 115.751 79.994 116.065 81.5811H139.707C139.244 77.1286 138.215 72.9646 136.704 69.1212L114.651 77.0079ZM109.236 69.2344C110.068 70.027 110.842 70.8783 111.55 71.7813L134.142 63.7012C132.23 60.2698 129.899 57.1591 127.233 54.3956L109.236 69.2344ZM103.567 65.2217C103.794 65.3376 104.02 65.4575 104.243 65.5801L122.747 50.3214C119.355 47.6219 115.587 45.3858 111.553 43.6602L103.567 65.2217ZM94.5053 62.6622C95.6543 62.755 96.781 62.9262 97.8784 63.1719L105.862 41.6163C102.208 40.5404 98.3981 39.8527 94.5053 39.5841V62.6622Z" fill="#536480"/>
</svg>
